<?xml version="1.0" standalone="no"?><svg xmlns="http://www.w3.org/2000/svg" viewBox="0 0 1440 320"><path fill="#82c2df" fill-opacity="1" d="M0,0L11.4,16C22.9,32,46,64,69,90.7C91.4,117,114,139,137,160C160,181,183,203,206,224C228.6,245,251,267,274,234.7C297.1,203,320,117,343,85.3C365.7,53,389,75,411,106.7C434.3,139,457,181,480,197.3C502.9,213,526,203,549,213.3C571.4,224,594,256,617,224C640,192,663,96,686,96C708.6,96,731,192,754,197.3C777.1,203,800,117,823,122.7C845.7,128,869,224,891,218.7C914.3,213,937,107,960,96C982.9,85,1006,171,1029,202.7C1051.4,235,1074,213,1097,202.7C1120,192,1143,192,1166,197.3C1188.6,203,1211,213,1234,208C1257.1,203,1280,181,1303,165.3C1325.7,149,1349,139,1371,117.3C1394.3,96,1417,64,1429,48L1440,32L1440,320L1428.6,320C1417.1,320,1394,320,1371,320C1348.6,320,1326,320,1303,320C1280,320,1257,320,1234,320C1211.4,320,1189,320,1166,320C1142.9,320,1120,320,1097,320C1074.3,320,1051,320,1029,320C1005.7,320,983,320,960,320C937.1,320,914,320,891,320C868.6,320,846,320,823,320C800,320,777,320,754,320C731.4,320,709,320,686,320C662.9,320,640,320,617,320C594.3,320,571,320,549,320C525.7,320,503,320,480,320C457.1,320,434,320,411,320C388.6,320,366,320,343,320C320,320,297,320,274,320C251.4,320,229,320,206,320C182.9,320,160,320,137,320C114.3,320,91,320,69,320C45.7,320,23,320,11,320L0,320Z"></path></svg>